<?xml version="1.0" encoding="UTF-8"?> <svg xmlns="http://www.w3.org/2000/svg" fill="#ff7010" width="18" height="18" viewBox="0 0 512 512"><path d="m512 256c0 50.53-14.999 99.674-43.374 142.116-6.139 9.183-18.559 11.649-27.742 5.51s-11.65-18.56-5.511-27.742c20.476-30.626 32.694-65.354 35.818-101.384h-18.191c-11.046 0-20-8.954-20-20s8.954-20 20-20h17.932c-10.14-102.139-91.726-183.569-193.932-193.477v18.477c0 11.046-8.954 20-20 20s-20-8.954-20-20v-18.655c-103.139 9.033-185.726 90.851-195.932 193.655h20.932c11.046 0 20 8.954 20 20s-8.954 20-20 20h-21.199c8.882 104.207 92.059 187.534 196.199 196.655v-20.655c0-11.046 8.954-20 20-20s20 8.954 20 20v20.477c32.107-3.118 63.127-13.357 90.737-30.083 9.446-5.723 21.745-2.705 27.468 6.744 5.723 9.447 2.704 21.745-6.744 27.469-39.843 24.135-85.648 36.893-132.461 36.893-68.38 0-132.667-26.629-181.02-74.98-48.351-48.353-74.98-112.64-74.98-181.02s26.629-132.667 74.98-181.02c48.353-48.351 112.64-74.98 181.02-74.98s132.667 26.629 181.02 74.98c48.351 48.353 74.98 112.64 74.98 181.02zm-256-113.5c-11.046 0-20 8.954-20 20v44.052l-68.624-70.956c-7.679-7.94-20.341-8.152-28.28-.473-7.94 7.679-8.151 20.34-.473 28.28l103 106.5c3.844 3.974 9.063 6.097 14.381 6.097 2.521 0 5.065-.478 7.495-1.46 7.556-3.055 12.501-10.39 12.501-18.54v-93.5c0-11.046-8.954-20-20-20z"></path></svg> 