<?xml version="1.0" encoding="UTF-8"?> <!-- Generator: Adobe Illustrator 22.0.1, SVG Export Plug-In . SVG Version: 6.00 Build 0) --> <svg xmlns="http://www.w3.org/2000/svg" xmlns:xlink="http://www.w3.org/1999/xlink" version="1.1" id="Logo" x="0px" y="0px" viewBox="0 0 160.3 59" style="enable-background:new 0 0 160.3 59;" xml:space="preserve"> <style type="text/css"> .st0{fill:#FF6F00;} </style> <path class="st0" d="M0,28.9l10.9,6V24.1L0,28.9z M4.9,10.8L11,21.7l6.1-8.4L4.9,10.8z M20.7,0l-1.2,12l9.7-3.6L20.7,0z M32.8,7.2 l11,4.8V0L32.8,7.2z M9.7,37.3L4.9,48.2L17,45.8L9.7,37.3z M19.5,47l1.2,12l8.5-8.4L19.5,47z M32.8,50.6l9.7,8.4l1.2-13.2L32.8,50.6 z"></path> <path class="st0" d="M31.1,46.1C22,46,14.6,38.6,14.7,29.4S22.2,12.9,31.4,13c4.9,0,9.5,2.2,12.7,6v-2.6c-7.3-7.1-18.9-6.9-26,0.4 s-6.9,18.9,0.4,26c7.1,6.9,18.5,6.9,25.6,0V40C40.8,43.9,36.1,46.1,31.1,46.1z"></path> <path class="st0" d="M73.2,25.1c-0.7,0-1.4,0.1-2,0.3c-1.3,0.5-2.2,0.9-2.6,1.3v-1.1h-2.8v10.8l2.8,1.5v-6.2c0-1.8,0.9-3.4,2.6-4.9 c0.9-0.7,1.7-1.1,2.4-1.1c0.4,0,0.7,0.1,1.1,0.3c0.4,0.2,0.6,0.5,0.6,0.8c0,0.6-0.3,1.2-1,1.7c-0.6,0.4-1.2,0.7-1.9,0.7l2.2,2.5 c0.6-0.3,1.3-0.8,1.8-1.4c0.7-0.7,1-1.4,1-1.9c0-0.7-0.2-1.3-0.7-1.8C75.8,25.7,74.6,25.1,73.2,25.1z"></path> <path class="st0" d="M94.8,11.1h-3.1l0.9,1c1.2,1.3,2,2.8,2.6,4.4c0.4,1.2,0.6,2.2,0.6,3.3v16.8c0,0,0.5,0.2,1.4,0.7l0.8,0.4 c0.2,0.1,0.3,0.1,0.4,0.2v-18c0-0.8-0.1-1.7-0.3-2.7C97.5,14.7,96.4,12.7,94.8,11.1z"></path> <path class="st0" d="M93.7,21.5H78.8h-0.5h-14H64h-7.1v-3.1l-2.6-1.8v4.9h-2.8h-0.3H36.7h-0.3H22v1.8h3v3.8c0,0,0,0-0.1,0.1 c-0.2,0.2-0.4,0.4-0.6,0.5v1.1c0.6-0.2,1.1-0.4,1.7-0.7c1.3-0.5,2.7-0.8,4.3-0.9c0.4,0,0.8,0,1.1,0.1c0.3,0,0.6,0.1,0.8,0.3 c0.3,0.1,0.5,0.3,0.7,0.5c0.2,0.1,0.4,0.3,0.4,0.5c0,0.3,0,0.5,0,0.8c0,0.1,0,0.2,0,0.3v0.1c-0.8-0.6-2-1-3.4-1 c-2.3,0-4.2,0.8-5.8,2.3c-0.8,0.8-1.2,1.6-1.2,2.4c0,0.7,0.3,1.4,0.8,2c1,1.2,2.5,1.8,4.5,1.8c1.4,0,2.6-0.2,3.7-0.7 c0.3-0.2,0.8-0.4,1.3-0.7c0.1,0.1,0.2,0.3,0.2,0.6c1.3,0.6,2.1,0.9,2.3,1v-5.6c0-2.5-0.2-4.1-0.6-5c-0.6-1.2-2-1.8-4.2-1.8 c-0.5,0-1.1,0-1.6,0.1c-1.2,0.2-1.9,0.4-2.1,0.4l-0.1-0.1v-2.4h9.5h0.3H48v2.5c-1.7-0.5-3-0.7-4-0.7c-0.8,0-1.7,0.1-2.6,0.4 C39.1,26,38,27.1,38,28.8c0,0.8,0.2,1.6,0.7,2.3c1,1.5,2.3,2.2,3.8,2.2c0.3,0,1-0.2,2.1-0.5c2-0.5,3.1-0.8,3.5-0.8 c1.2,0,1.8,0.4,1.8,1.1c0,0.5-0.3,0.9-1,1.3c-1.3,0.7-2.7,1.1-4.2,1.1c-0.7,0-1.7-0.3-2.8-0.8c-1.1-0.6-1.9-0.8-2.3-0.8 c-1,0-1.5,0.4-1.5,1.2c0,0.7,0.3,1.2,0.9,1.6c1,0.6,2.4,0.9,4.2,1c0.3,0,0.7,0.4,1.1,1.2c0.5,0.9,0.9,1.5,1.2,1.8 c0.5,0.5,1.2,0.8,1.9,0.8c0.9,0,1.6-0.1,1.9-0.4L48,38.4c-0.2,0.1-0.5,0.1-0.7,0.1c-0.6,0-1.3-0.4-2-1.1c0.7,0,1.5-0.3,2.3-0.6 c2-0.9,2.9-2.1,2.9-3.7c0-0.7-0.2-1.3-0.6-1.8c-0.8-1-2.1-1.6-3.8-1.6c-0.9,0-1.5,0.1-1.8,0.2c-0.8,0.3-1.5,0.5-2,0.7 c-0.8,0.3-1.5,0.4-1.9,0.4c-0.8,0-1.2-0.4-1.2-1.2c0-0.6,0.3-1.1,1-1.4c1.2-0.6,2.7-1,4.5-1c0.7,0,1.6,0.1,2.6,0.4 c1.1,0.2,1.9,0.5,2.5,0.9v-5.6h1.3h0.3h2.8V34c0,0.5,0.2,1.1,0.5,1.6c0.8,1.2,1.8,1.9,3.2,1.9c2.4,0,4.1-1.2,5.2-3.7L60.2,32 c0,3-0.7,4.5-2.2,4.5c-0.3,0-0.6-0.2-0.8-0.5s-0.3-0.6-0.3-1V23.3H64h0.3h13.9h0.5h9.5v2.3c0,0.1,0,0.1-0.1,0.1 c-1.3-0.4-2.3-0.5-3-0.5c-1.2,0-2.3,0.3-3.2,0.9c-0.7,0.5-1.4,1.1-1.9,1.9c-0.6,0.9-0.9,1.7-0.9,2.5c0,1.7,0.9,3.3,2.7,4.8 c1.7,1.4,3.3,2.1,5,2.1c1.1,0,2.1-0.3,3.1-0.8c2-1.1,3-2.7,3-5c0-1.3-0.3-2.4-0.9-3.1c-0.8-0.8-1.2-1.2-1.2-1.3v-4h2.8h0.5h1.2v-1.7 h-1.2C94.1,21.5,93.7,21.5,93.7,21.5z M31.3,34.4c-1.5,0.9-3.2,1.4-5,1.4c-1.4,0-2.2-0.4-2.4-1.1c0-0.4,0.2-0.9,0.7-1.5 c1.2-1.5,2.9-2.2,5-2.2c0.6,0,1.3,0.1,2.1,0.4c1,0.3,1.5,0.7,1.5,1.2C33.3,33,32.6,33.6,31.3,34.4z M88.4,34.1 c-1.4,1.2-2.8,1.8-4,1.8c-0.5,0-1-0.1-1.5-0.4c-1.1-0.6-1.6-1.3-1.6-2.3c0-2,0.8-3.6,2.4-4.9c1.4-1.1,2.7-1.6,3.9-1.6 c0.3,0,0.7,0.1,1.2,0.3c1.2,0.5,1.8,1.4,1.8,2.8C90.7,31.4,90,32.8,88.4,34.1z"></path> <path class="st0" d="M145.5,21.5h-0.3h-14.8h-0.5h-14.1h-0.5h-14.9h-0.5h-1v1.8h1h0.5h9.5v2.3c0,0.1,0,0.1-0.1,0.1 c-1.3-0.4-2.3-0.5-3-0.5c-1.2,0-2.3,0.3-3.2,0.9c-0.7,0.5-1.4,1.1-1.9,1.9c-0.6,0.9-0.9,1.7-0.9,2.5c0,1.7,0.9,3.3,2.7,4.8 c1.7,1.4,3.3,2.1,5,2.1c1.1,0,2.1-0.3,3.1-0.8c2-1.1,3-2.7,3-5c0-1.3-0.3-2.4-0.9-3.1c-0.8-0.8-1.2-1.2-1.2-1.3v-4h2.8h0.5h7.1v1.6 c0,0.2-0.1,0.2-0.2,0.3c-3.7,0-5.5,1.1-5.5,3.4c0,0.7,0.2,1.3,0.6,1.8l0.7,1v0.2c-0.5,0-1.1,0.3-1.6,0.7c-0.6,0.4-0.9,0.9-0.9,1.4 c0,0.9,0.8,2,2.3,3c0.7,0.5,1.4,0.8,1.9,0.8c0.7,0,1.9-0.4,3.5-1.1c1.6-0.7,2.8-1.1,3.5-1.1c0.8,0,1.4,0.3,1.8,0.8s0.7,1.2,0.7,1.9 c0,0.4-0.2,0.9-0.5,1.3c-0.8,1.1-1.8,1.6-3.1,1.6c-0.5,0-1.3-0.3-2.2-1c-1.1-0.8-1.9-1.3-2.3-1.4c-0.8-0.3-1.6-0.5-2.7-0.5 c-1.5,0-2.8,0.4-3.9,1.2c-1,0.7-1.9,1.6-2.5,2.7c-0.7,1.2-1.1,2.3-1.1,3.5c0,0.3,0,0.6,0.1,0.7c0.6-1.2,1.4-2.3,2.4-3.2 c2.1-1.9,4.4-2.8,6.8-2.8c1.1,0,2.5,0.4,4.1,1.2c1.5,0.7,2.6,1.1,3.4,1.1c1.8,0,2.6-0.9,2.6-2.7c0-0.5-0.1-1.3-0.3-2.3 c-0.3-1.2-0.7-2.1-1.2-2.9c-0.7-0.9-1.6-1.4-2.6-1.4c-1.1,0-2.6,0.5-4.5,1.4c-1.6,0.8-2.7,1.2-3.2,1.2c-0.3,0-0.6-0.1-0.9-0.3 s-0.4-0.5-0.4-0.8c0-0.2,0.1-0.5,0.4-0.8c0.7-0.9,2-1.3,4-1.3c1.5,0,2.7-0.2,3.4-0.5c1.1-0.5,1.6-1.4,1.6-2.7c0-0.3,0-0.6-0.1-0.8 c0-0.1-0.1-0.2-0.2-0.5c-0.1-0.2-0.2-0.4-0.2-0.5s0.1-0.3,0.3-0.4s0.3-0.2,0.5-0.2c0.4,0,0.7,0.2,0.9,0.7c0.2,0.4,0.3,0.8,0.3,1.2 l1.5-1.8c-0.1-0.3-0.2-0.6-0.5-1c-0.6-0.7-1.1-1.1-1.8-1.1c-0.4,0-0.6,0.1-0.8,0.3l-0.6,0.7c-0.3,0.3-0.5,0.5-0.6,0.5 c-0.3-0.1-0.4-0.4-0.4-0.9v-2.5h4.7h0.5h8.9v2.4c-1.7,0-3.3,0.2-4.7,0.6c-1.8,0.5-2.7,1.4-2.7,2.6c0,0.6,0.3,1,0.9,1.3l1,0.6 c-0.9,0.4-1.5,0.8-1.9,1.1c-0.6,0.5-0.9,1.1-0.9,1.9c0,0.7,0.4,1.4,1.3,2c1.8,1.2,4,1.7,6.5,1.7c2.3,0,4.3-0.5,6-1.6v-3.7 c-2,2.8-4.5,4.2-7.7,4.2c-0.7,0-1.4-0.1-2.1-0.4c-0.8-0.4-1.2-0.9-1.2-1.5c0-1.1,1.2-1.8,3.5-2c0.3,0,1.2-0.1,2.5-0.1v-1.3h-0.9 c-0.6,0-0.9,0-1,0c-2.2,0-3.3-0.4-3.3-1.2c0-0.7,0.6-1.3,1.7-1.7c0.8-0.3,1.7-0.5,2.6-0.5c1.3,0,2.5,0.2,3.6,0.6v-1.7 c-0.2-0.2-0.5-0.3-1-0.4v-2.9h3.7h0.3H160v-1.4L145.5,21.5L145.5,21.5z M110,34.1c-1.4,1.2-2.8,1.8-4,1.8c-0.5,0-1-0.1-1.5-0.4 c-1.1-0.6-1.6-1.3-1.6-2.3c0-2,0.8-3.6,2.4-4.9c1.4-1.1,2.7-1.6,3.9-1.6c0.3,0,0.7,0.1,1.2,0.3c1.2,0.5,1.8,1.4,1.8,2.8 C112.3,31.4,111.6,32.8,110,34.1z M124.3,30c-0.4,0.5-0.9,0.9-1.6,1.3s-1.3,0.6-1.9,0.6c-0.5,0-1-0.2-1.4-0.6s-0.6-0.8-0.6-1.4 c0-1,0.5-1.9,1.5-2.6c0.9-0.7,1.9-1.1,2.9-1.1c1.3,0,1.9,0.6,1.9,1.8C125,28.8,124.8,29.4,124.3,30z"></path> <path class="st0" d="M154.4,25.1c-0.7,0-1.4,0.1-2,0.3c-1.3,0.5-2.2,0.9-2.6,1.3v-1.1H147v10.8l2.8,1.5v-6.2c0-1.8,0.9-3.4,2.6-4.9 c0.9-0.7,1.7-1.1,2.4-1.1c0.4,0,0.7,0.1,1.1,0.3c0.4,0.2,0.6,0.5,0.6,0.8c0,0.6-0.3,1.2-1,1.7c-0.6,0.4-1.2,0.7-1.9,0.7l2.2,2.5 c0.6-0.3,1.3-0.8,1.8-1.4c0.7-0.7,1-1.4,1-1.9c0-0.7-0.2-1.3-0.7-1.8C157,25.7,155.8,25.1,154.4,25.1z"></path> </svg> 